{"title":"Road Of No Reurn 2009 DVDRip XviD AC3-LEGi0N","uid":5725632,"size":1479687344,"categoryP":"video","categoryS":"movies","magnet":"?xt=urn:btih:82c2a7b59b053182d2a9010bd0cfba8c4c25b114&amp;dn=Road+Of+No+Reurn+2009+DVDRip+XviD+AC3-LEGi0N&amp;tr=udp%3A%2F%2Ftracker.openbittorrent.com%3A80&amp;tr=udp%3A%2F%2Fopen.demonii.com%3A1337&amp;tr=udp%3A%2F%2Ftracker.coppersurfer.tk%3A6969&amp;tr=udp%3A%2F%2Fexodus.desync.com%3A6969","seeders":0,"leechers":1,"uploader":"TvTeam","files":5,"time":1280455048,"description":". \n  &lt;a href=&quot;\nhttp://www.torrentday.com/&quot; rel=&quot;nofollow&quot; target=&quot;_NEW&quot;&gt;\nhttp://www.torrentday.com/&lt;/a&gt;        :     The Hottest Private Tracker On The Net!!!\n\n\n               www . TorrentDay . Com \n(((((((((((((= Enjoy No RAR releases =))))))))))))))))))))\n\n\n...................................NFO:....................................\n\n\n[b]Road of No Return 2009 DVDRip XviD AC3-LEGi0N[/center]\n\n[img]http://leetleech.org/images/48874973695367351744.png[/img][b]\n[color=red]General[/color]\nFormat:AVI \nFile Size: 1.37 GiB\nDuration: 1h 30mn\nOverall bit rate: 2 168 Kbps\nIMDB Rating: 4.3/10   386  votes\nGenre: Action: Drama            \nIMDb Link: http://www.imdb.com/title/tt1298716/\nSource: NTSC DVDR-0MNiDVD\n\n[color=red]Video[/color]\nFormat: MPEG-4 Visual\nFormat profile: Advanced Simple@L5\nFormat settings, BVOP: Yes\nFormat settings, QPel: NoFile Size\nFormat settings, GMC:  No warpoints\nFormat settings, Matrix: Default (H.263)\nMuxing mode: Packed bitstream\nCodec ID: XVID\nBit rate: 1 710Kbps\nWidth: 720 pixels\nHeight: 400 pixels\nDAR: 16:9\nFrame rate 23.976 fps\nResolution: 8 bits\nColorimetry: 4:2:0\nScan Type: Progressive\nBits/(Pixel*Frame): 0.248\nStream size: 1 08 GiB (79%)\n\n[color=red]Audio[/color]\nFormat: AC-3\nBit rate mode: Constant\nBit rate: 448 Kbps\nChannel(s): 6 channels\nSampling rate: 48.0 KHz\nStream size: 290 MiB (21%) \n\n[img]http://leetleech.org/images/89524873606771859129.png[/img]\n Follows the final nine days in the lives of four hitmen who\nare secretly brought together in a covent operation to fight the\nnation's drug trafficking epidemic.\n[color=red]Tagline:[/color]\nN/A                 \n\n[img]http://leetleech.org/images/84434050717770922575.png[/img]\nMichael Madson ... J. Marcone      \nDavid Carradine... Mr. Hover      \nMichael Blain-Rozgay               \nErnest Anthony ... Blacky \nShane Woodson  ... Whitey \nCarlie Westerman.. Katie   \nSandy Kanan    ... Mom        \n\n[color=red]GREETZ[/color]\nNoir | xXTHORNXx | bigimac | LUSi |\n\nkempas | KaN1vE | mike160 | skillz |\n\nLungbuster | Sheikh | DiLLoN1369  |\n\n0B5C3N3 | FLAWL3SS | AND ALL P2P![/b]\n\n[img]http://leetleech.org/images/95521316153253938506.png[/img]\n\n\n[center][img]http://leetleech.org/images/12755021538703799215.png[/img][/center]","torrent":{"xt":"urn:btih:82c2a7b59b053182d2a9010bd0cfba8c4c25b114","amp;dn":"Road+Of+No+Reurn+2009+DVDRip+XviD+AC3-LEGi0N","amp;tr":["udp%3A%2F%2Ftracker.openbittorrent.com%3A80","udp%3A%2F%2Fopen.demonii.com%3A1337","udp%3A%2F%2Ftracker.coppersurfer.tk%3A6969","udp%3A%2F%2Fexodus.desync.com%3A6969"],"infoHash":"82c2a7b59b053182d2a9010bd0cfba8c4c25b114","infoHashBuffer":{"type":"Buffer","data":[130,194,167,181,155,5,49,130,210,169,1,11,208,207,186,140,76,37,177,20]},"announce":[],"urlList":[]}}